M48
; DRILL file {KiCad (6.0.2)} date Tue Aug 23 14:49:35 2022
; FORMAT={-:-/ absolute / metric / decimal}
; #@! TF.CreationDate,2022-08-23T14:49:35-07:00
; #@! TF.GenerationSoftware,Kicad,Pcbnew,(6.0.2)
; #@! TF.FileFunction,NonPlated,1,2,NPTH
FMAT,2
METRIC
; #@! TA.AperFunction,NonPlated,NPTH,ComponentDrill
T1C1.750
; #@! TA.AperFunction,NonPlated,NPTH,ComponentDrill
T2C3.000
; #@! TA.AperFunction,NonPlated,NPTH,ComponentDrill
T3C3.200
; #@! TA.AperFunction,NonPlated,NPTH,ComponentDrill
T4C5.100
%
G90
G05
T1
X200.898Y-131.564
X200.898Y-150.614
X211.058Y-131.564
X211.058Y-150.614
X219.948Y-131.564
X219.948Y-150.614
X230.108Y-131.564
X230.108Y-150.614
X238.998Y-131.564
X238.998Y-150.614
X249.158Y-131.564
X249.158Y-150.614
T2
X202.168Y-129.024
X202.168Y-148.074
X203.378Y-125.814
X203.378Y-144.864
X208.518Y-126.484
X208.518Y-145.534
X210.378Y-126.864
X210.378Y-145.914
X221.218Y-129.024
X221.218Y-148.074
X222.428Y-125.814
X222.428Y-144.864
X227.568Y-126.484
X227.568Y-145.534
X229.428Y-126.864
X229.428Y-145.914
X240.268Y-129.024
X240.268Y-148.074
X241.478Y-125.814
X241.478Y-144.864
X246.618Y-126.484
X246.618Y-145.534
X248.478Y-126.864
X248.478Y-145.914
T3
X196.453Y-122.039
X196.453Y-160.139
X253.603Y-122.039
X253.603Y-160.139
T4
X205.978Y-131.564
X205.978Y-150.614
X225.028Y-131.564
X225.028Y-150.614
X244.078Y-131.564
X244.078Y-150.614
T0
M30
