M48
; DRILL file {KiCad (6.0.2)} date Mon Aug 22 21:21:36 2022
; FORMAT={-:-/ absolute / inch / decimal}
; #@! TF.CreationDate,2022-08-22T21:21:36-07:00
; #@! TF.GenerationSoftware,Kicad,Pcbnew,(6.0.2)
; #@! TF.FileFunction,MixedPlating,1,2
FMAT,2
INCH
; #@! TA.AperFunction,Plated,PTH,ViaDrill
T1C0.0157
; #@! TA.AperFunction,Plated,PTH,ComponentDrill
T2C0.0276
; #@! TA.AperFunction,Plated,PTH,ComponentDrill
T3C0.0300
; #@! TA.AperFunction,Plated,PTH,ComponentDrill
T4C0.0394
; #@! TA.AperFunction,NonPlated,NPTH,ComponentDrill
T5C0.0689
; #@! TA.AperFunction,NonPlated,NPTH,ComponentDrill
T6C0.1181
; #@! TA.AperFunction,NonPlated,NPTH,ComponentDrill
T7C0.1260
; #@! TA.AperFunction,NonPlated,NPTH,ComponentDrill
T8C0.2008
%
G90
G05
T1
X7.8984Y-5.3203
X7.8984Y-6.1875
X8.007Y-6.2297
X8.0625Y-5.4844
X8.3438Y-6.0469
X8.3672Y-5.3203
X8.3672Y-5.3906
X8.3672Y-5.4375
X8.5311Y-5.6484
X8.5547Y-5.6068
X8.6484Y-4.8047
X8.6484Y-5.3203
X8.6484Y-5.3906
X8.7188Y-5.4844
X8.8594Y-5.6016
X9.0234Y-5.4844
X9.0234Y-6.1641
X9.0703Y-4.8047
X9.0703Y-5.3906
X9.0703Y-5.4375
X9.3516Y-5.3203
X9.3516Y-5.3906
X9.3516Y-6.0703
X9.4219Y-5.4844
X9.7918Y-5.4
X9.7969Y-6.1406
X9.8203Y-5.3633
T2
X8.7094Y-5.5547
X9.0094Y-5.5547
T3
X7.6844Y-5.5124
X7.7844Y-5.5124
X8.5594Y-4.7423
X8.5594Y-4.8423
X8.5594Y-5.2423
X8.5594Y-5.3423
X8.5594Y-5.4423
X8.5594Y-5.5423
X9.1594Y-4.7423
X9.1594Y-4.8423
X9.1594Y-5.2423
X9.1594Y-5.3423
X9.1594Y-5.4423
X9.1594Y-5.5423
X9.9344Y-5.5124
X10.0344Y-5.5124
T4
X7.8922Y-5.5547
X8.0922Y-5.5547
X8.2141Y-5.5547
X8.4141Y-5.5547
X8.4844Y-6.0344
X8.4844Y-6.2344
X9.2344Y-6.0344
X9.2344Y-6.2344
X9.3047Y-5.5547
X9.5047Y-5.5547
X9.6266Y-5.5547
X9.8266Y-5.5547
T5
X7.9094Y-5.1797
X7.9094Y-5.9297
X8.3094Y-5.1797
X8.3094Y-5.9297
X8.6594Y-5.1797
X8.6594Y-5.9297
X9.0594Y-5.1797
X9.0594Y-5.9297
X9.4094Y-5.1797
X9.4094Y-5.9297
X9.8094Y-5.1797
X9.8094Y-5.9297
T6
X7.9594Y-5.0797
X7.9594Y-5.8297
X8.007Y-4.9533
X8.007Y-5.7033
X8.2094Y-4.9797
X8.2094Y-5.7297
X8.2826Y-4.9947
X8.2826Y-5.7447
X8.7094Y-5.0797
X8.7094Y-5.8297
X8.757Y-4.9533
X8.757Y-5.7033
X8.9594Y-4.9797
X8.9594Y-5.7297
X9.0326Y-4.9947
X9.0326Y-5.7447
X9.4594Y-5.0797
X9.4594Y-5.8297
X9.507Y-4.9533
X9.507Y-5.7033
X9.7094Y-4.9797
X9.7094Y-5.7297
X9.7826Y-4.9947
X9.7826Y-5.7447
T7
X7.7344Y-4.8047
X7.7344Y-6.3047
X9.9844Y-4.8047
X9.9844Y-6.3047
T8
X8.1094Y-5.1797
X8.1094Y-5.9297
X8.8594Y-5.1797
X8.8594Y-5.9297
X9.6094Y-5.1797
X9.6094Y-5.9297
T0
M30
