%TF.GenerationSoftware,KiCad,Pcbnew,(6.0.2)*%
%TF.CreationDate,2022-08-22T21:21:30-07:00*%
%TF.ProjectId,minipad,6d696e69-7061-4642-9e6b-696361645f70,rev?*%
%TF.SameCoordinates,Original*%
%TF.FileFunction,Soldermask,Bot*%
%TF.FilePolarity,Negative*%
%FSLAX46Y46*%
G04 Gerber Fmt 4.6, Leading zero omitted, Abs format (unit mm)*
G04 Created by KiCad (PCBNEW (6.0.2)) date 2022-08-22 21:21:30*
%MOMM*%
%LPD*%
G01*
G04 APERTURE LIST*
G04 Aperture macros list*
%AMOutline5P*
0 Free polygon, 5 corners , with rotation*
0 The origin of the aperture is its center*
0 number of corners: always 5*
0 $1 to $10 corner X, Y*
0 $11 Rotation angle, in degrees counterclockwise*
0 create outline with 5 corners*
4,1,5,$1,$2,$3,$4,$5,$6,$7,$8,$9,$10,$1,$2,$11*%
%AMOutline6P*
0 Free polygon, 6 corners , with rotation*
0 The origin of the aperture is its center*
0 number of corners: always 6*
0 $1 to $12 corner X, Y*
0 $13 Rotation angle, in degrees counterclockwise*
0 create outline with 6 corners*
4,1,6,$1,$2,$3,$4,$5,$6,$7,$8,$9,$10,$11,$12,$1,$2,$13*%
%AMOutline7P*
0 Free polygon, 7 corners , with rotation*
0 The origin of the aperture is its center*
0 number of corners: always 7*
0 $1 to $14 corner X, Y*
0 $15 Rotation angle, in degrees counterclockwise*
0 create outline with 7 corners*
4,1,7,$1,$2,$3,$4,$5,$6,$7,$8,$9,$10,$11,$12,$13,$14,$1,$2,$15*%
%AMOutline8P*
0 Free polygon, 8 corners , with rotation*
0 The origin of the aperture is its center*
0 number of corners: always 8*
0 $1 to $16 corner X, Y*
0 $17 Rotation angle, in degrees counterclockwise*
0 create outline with 8 corners*
4,1,8,$1,$2,$3,$4,$5,$6,$7,$8,$9,$10,$11,$12,$13,$14,$15,$16,$1,$2,$17*%
G04 Aperture macros list end*
%ADD10O,1.400000X1.400000*%
%ADD11C,1.400000*%
%ADD12R,2.000000X2.000000*%
%ADD13O,2.000000X2.000000*%
%ADD14C,3.200000*%
%ADD15C,3.000000*%
%ADD16C,1.750000*%
%ADD17C,5.100000*%
%ADD18R,2.550000X2.500000*%
%ADD19R,2.550000X2.550000*%
%ADD20R,1.700000X0.820000*%
%ADD21Outline5P,-0.850000X0.246000X-0.686000X0.410000X0.850000X0.410000X0.850000X-0.410000X-0.850000X-0.410000X0.000000*%
%ADD22C,1.524000*%
G04 APERTURE END LIST*
D10*
%TO.C,R1*%
X221218314Y-141089181D03*
D11*
X228838314Y-141089181D03*
%TD*%
D12*
%TO.C,D6*%
X244514895Y-141089181D03*
D13*
X249594895Y-141089181D03*
%TD*%
D12*
%TO.C,D5*%
X234553322Y-158353258D03*
D13*
X234553322Y-153273258D03*
%TD*%
%TO.C,D4*%
X215503306Y-153273258D03*
D12*
X215503306Y-158353258D03*
%TD*%
%TO.C,D3*%
X236339261Y-141089181D03*
D13*
X241419261Y-141089181D03*
%TD*%
D12*
%TO.C,D2*%
X208637367Y-141089181D03*
D13*
X213717367Y-141089181D03*
%TD*%
D12*
%TO.C,D1*%
X200461733Y-141089181D03*
D13*
X205541733Y-141089181D03*
%TD*%
D14*
%TO.C,REF\u002A\u002A*%
X196453290Y-160139197D03*
%TD*%
D15*
%TO.C,SW4*%
X208518298Y-145534189D03*
X210378298Y-145914189D03*
D16*
X211058298Y-150614189D03*
D15*
X203378298Y-144864189D03*
D17*
X205978298Y-150614189D03*
D15*
X202168298Y-148074189D03*
D16*
X200898298Y-150614189D03*
D18*
X211993298Y-145534189D03*
D19*
X214253298Y-145914189D03*
X199503298Y-144864189D03*
D18*
X198568298Y-148074189D03*
D20*
X208578298Y-156064189D03*
X203378298Y-156064189D03*
X208578298Y-154564189D03*
D21*
X203378298Y-154564189D03*
%TD*%
D14*
%TO.C,REF\u002A\u002A*%
X253603338Y-160139197D03*
%TD*%
D15*
%TO.C,SW3*%
X248478330Y-126864173D03*
D16*
X249158330Y-131564173D03*
D15*
X240268330Y-129024173D03*
X241478330Y-125814173D03*
X246618330Y-126484173D03*
D16*
X238998330Y-131564173D03*
D17*
X244078330Y-131564173D03*
D18*
X250093330Y-126484173D03*
D19*
X252353330Y-126864173D03*
X237603330Y-125814173D03*
D18*
X236668330Y-129024173D03*
D20*
X246678330Y-137014173D03*
X241478330Y-137014173D03*
X246678330Y-135514173D03*
D21*
X241478330Y-135514173D03*
%TD*%
D16*
%TO.C,SW2*%
X230108314Y-131564173D03*
D15*
X229428314Y-126864173D03*
X227568314Y-126484173D03*
D17*
X225028314Y-131564173D03*
D15*
X221218314Y-129024173D03*
D16*
X219948314Y-131564173D03*
D15*
X222428314Y-125814173D03*
D19*
X233303314Y-126864173D03*
D18*
X231043314Y-126484173D03*
X217618314Y-129024173D03*
D19*
X218553314Y-125814173D03*
D20*
X227628314Y-137014173D03*
X222428314Y-137014173D03*
X227628314Y-135514173D03*
D21*
X222428314Y-135514173D03*
%TD*%
D15*
%TO.C,SW6*%
X241478330Y-144864189D03*
X240268330Y-148074189D03*
X246618330Y-145534189D03*
D17*
X244078330Y-150614189D03*
D15*
X248478330Y-145914189D03*
D16*
X249158330Y-150614189D03*
X238998330Y-150614189D03*
D18*
X250093330Y-145534189D03*
D19*
X252353330Y-145914189D03*
D18*
X236668330Y-148074189D03*
D19*
X237603330Y-144864189D03*
D20*
X246678330Y-156064189D03*
X241478330Y-156064189D03*
X246678330Y-154564189D03*
D21*
X241478330Y-154564189D03*
%TD*%
D22*
%TO.C,C2*%
X197723290Y-140015364D03*
X195183290Y-140015364D03*
%TD*%
D15*
%TO.C,SW1*%
X203378298Y-125814173D03*
D17*
X205978298Y-131564173D03*
D15*
X210378298Y-126864173D03*
X208518298Y-126484173D03*
X202168298Y-129024173D03*
D16*
X200898298Y-131564173D03*
X211058298Y-131564173D03*
D19*
X214253298Y-126864173D03*
D18*
X211993298Y-126484173D03*
X198568298Y-129024173D03*
D19*
X199503298Y-125814173D03*
D20*
X208578298Y-137014173D03*
X203378298Y-137014173D03*
X208578298Y-135514173D03*
D21*
X203378298Y-135514173D03*
%TD*%
D15*
%TO.C,SW5*%
X221218314Y-148074189D03*
X229428314Y-145914189D03*
X222428314Y-144864189D03*
D16*
X230108314Y-150614189D03*
D17*
X225028314Y-150614189D03*
D16*
X219948314Y-150614189D03*
D15*
X227568314Y-145534189D03*
D18*
X231043314Y-145534189D03*
D19*
X233303314Y-145914189D03*
X218553314Y-144864189D03*
D18*
X217618314Y-148074189D03*
D20*
X227628314Y-156064189D03*
X222428314Y-156064189D03*
X227628314Y-154564189D03*
D21*
X222428314Y-154564189D03*
%TD*%
D14*
%TO.C,REF\u002A\u002A*%
X253603338Y-122039165D03*
%TD*%
%TO.C,REF\u002A\u002A*%
X196453290Y-122039165D03*
%TD*%
D22*
%TO.C,U1*%
X232648314Y-120454165D03*
X232648314Y-122994165D03*
X232648314Y-133154165D03*
X232648314Y-135694165D03*
X232648314Y-138234165D03*
X232648314Y-140774165D03*
X217408314Y-140774165D03*
X217408314Y-138234165D03*
X217408314Y-135694165D03*
X217408314Y-133154165D03*
X217408314Y-122994165D03*
X217408314Y-120454165D03*
%TD*%
%TO.C,C1*%
X252333338Y-140015364D03*
X254873338Y-140015364D03*
%TD*%
M02*
