M48
; DRILL file {KiCad (6.0.2)} date Tue Aug 23 14:49:35 2022
; FORMAT={-:-/ absolute / metric / decimal}
; #@! TF.CreationDate,2022-08-23T14:49:35-07:00
; #@! TF.GenerationSoftware,Kicad,Pcbnew,(6.0.2)
; #@! TF.FileFunction,Plated,1,2,PTH
FMAT,2
METRIC
; #@! TA.AperFunction,Plated,PTH,ViaDrill
T1C0.400
; #@! TA.AperFunction,Plated,PTH,ComponentDrill
T2C0.700
; #@! TA.AperFunction,Plated,PTH,ComponentDrill
T3C0.762
; #@! TA.AperFunction,Plated,PTH,ComponentDrill
T4C1.000
%
G90
G05
T1
X200.62Y-135.136
X200.62Y-157.163
X203.378Y-158.235
X204.788Y-139.303
X211.931Y-153.591
X212.527Y-135.136
X212.527Y-136.922
X212.527Y-138.113
X216.691Y-143.47
X217.289Y-142.414
X219.67Y-122.039
X219.67Y-135.136
X219.67Y-136.922
X221.456Y-139.303
X225.028Y-142.28
X229.196Y-139.303
X229.196Y-156.567
X230.386Y-122.039
X230.386Y-136.922
X230.386Y-138.113
X237.53Y-135.136
X237.53Y-136.922
X237.53Y-154.186
X239.316Y-139.303
X248.712Y-137.16
X248.841Y-155.972
X249.436Y-136.227
T2
X221.218Y-141.089
X228.838Y-141.089
T3
X195.183Y-140.015
X197.723Y-140.015
X217.408Y-120.454
X217.408Y-122.994
X217.408Y-133.154
X217.408Y-135.694
X217.408Y-138.234
X217.408Y-140.774
X232.648Y-120.454
X232.648Y-122.994
X232.648Y-133.154
X232.648Y-135.694
X232.648Y-138.234
X232.648Y-140.774
X252.333Y-140.015
X254.873Y-140.015
T4
X200.462Y-141.089
X205.542Y-141.089
X208.637Y-141.089
X213.717Y-141.089
X215.503Y-153.273
X215.503Y-158.353
X234.553Y-153.273
X234.553Y-158.353
X236.339Y-141.089
X241.419Y-141.089
X244.515Y-141.089
X249.595Y-141.089
T0
M30
