%TF.GenerationSoftware,KiCad,Pcbnew,(6.0.2)*%
%TF.CreationDate,2022-08-22T21:21:30-07:00*%
%TF.ProjectId,minipad,6d696e69-7061-4642-9e6b-696361645f70,rev?*%
%TF.SameCoordinates,Original*%
%TF.FileFunction,Soldermask,Top*%
%TF.FilePolarity,Negative*%
%FSLAX46Y46*%
G04 Gerber Fmt 4.6, Leading zero omitted, Abs format (unit mm)*
G04 Created by KiCad (PCBNEW (6.0.2)) date 2022-08-22 21:21:30*
%MOMM*%
%LPD*%
G01*
G04 APERTURE LIST*
%ADD10O,1.400000X1.400000*%
%ADD11C,1.400000*%
%ADD12R,2.000000X2.000000*%
%ADD13O,2.000000X2.000000*%
%ADD14C,3.200000*%
%ADD15C,3.000000*%
%ADD16C,1.750000*%
%ADD17C,5.100000*%
%ADD18C,1.524000*%
G04 APERTURE END LIST*
D10*
%TO.C,R1*%
X221218314Y-141089181D03*
D11*
X228838314Y-141089181D03*
%TD*%
D12*
%TO.C,D6*%
X244514895Y-141089181D03*
D13*
X249594895Y-141089181D03*
%TD*%
D12*
%TO.C,D5*%
X234553322Y-158353258D03*
D13*
X234553322Y-153273258D03*
%TD*%
%TO.C,D4*%
X215503306Y-153273258D03*
D12*
X215503306Y-158353258D03*
%TD*%
%TO.C,D3*%
X236339261Y-141089181D03*
D13*
X241419261Y-141089181D03*
%TD*%
D12*
%TO.C,D2*%
X208637367Y-141089181D03*
D13*
X213717367Y-141089181D03*
%TD*%
D12*
%TO.C,D1*%
X200461733Y-141089181D03*
D13*
X205541733Y-141089181D03*
%TD*%
D14*
%TO.C,REF\u002A\u002A*%
X196453290Y-160139197D03*
%TD*%
D15*
%TO.C,SW4*%
X208518298Y-145534189D03*
X210378298Y-145914189D03*
D16*
X211058298Y-150614189D03*
D15*
X203378298Y-144864189D03*
D17*
X205978298Y-150614189D03*
D15*
X202168298Y-148074189D03*
D16*
X200898298Y-150614189D03*
%TD*%
D14*
%TO.C,REF\u002A\u002A*%
X253603338Y-160139197D03*
%TD*%
D15*
%TO.C,SW3*%
X248478330Y-126864173D03*
D16*
X249158330Y-131564173D03*
D15*
X240268330Y-129024173D03*
X241478330Y-125814173D03*
X246618330Y-126484173D03*
D16*
X238998330Y-131564173D03*
D17*
X244078330Y-131564173D03*
%TD*%
D16*
%TO.C,SW2*%
X230108314Y-131564173D03*
D15*
X229428314Y-126864173D03*
X227568314Y-126484173D03*
D17*
X225028314Y-131564173D03*
D15*
X221218314Y-129024173D03*
D16*
X219948314Y-131564173D03*
D15*
X222428314Y-125814173D03*
%TD*%
%TO.C,SW6*%
X241478330Y-144864189D03*
X240268330Y-148074189D03*
X246618330Y-145534189D03*
D17*
X244078330Y-150614189D03*
D15*
X248478330Y-145914189D03*
D16*
X249158330Y-150614189D03*
X238998330Y-150614189D03*
%TD*%
D18*
%TO.C,C2*%
X197723290Y-140015364D03*
X195183290Y-140015364D03*
%TD*%
D15*
%TO.C,SW1*%
X203378298Y-125814173D03*
D17*
X205978298Y-131564173D03*
D15*
X210378298Y-126864173D03*
X208518298Y-126484173D03*
X202168298Y-129024173D03*
D16*
X200898298Y-131564173D03*
X211058298Y-131564173D03*
%TD*%
D15*
%TO.C,SW5*%
X221218314Y-148074189D03*
X229428314Y-145914189D03*
X222428314Y-144864189D03*
D16*
X230108314Y-150614189D03*
D17*
X225028314Y-150614189D03*
D16*
X219948314Y-150614189D03*
D15*
X227568314Y-145534189D03*
%TD*%
D14*
%TO.C,REF\u002A\u002A*%
X253603338Y-122039165D03*
%TD*%
%TO.C,REF\u002A\u002A*%
X196453290Y-122039165D03*
%TD*%
D18*
%TO.C,U1*%
X232648314Y-120454165D03*
X232648314Y-122994165D03*
X232648314Y-133154165D03*
X232648314Y-135694165D03*
X232648314Y-138234165D03*
X232648314Y-140774165D03*
X217408314Y-140774165D03*
X217408314Y-138234165D03*
X217408314Y-135694165D03*
X217408314Y-133154165D03*
X217408314Y-122994165D03*
X217408314Y-120454165D03*
%TD*%
%TO.C,C1*%
X252333338Y-140015364D03*
X254873338Y-140015364D03*
%TD*%
M02*
