%FSLAX45Y45*%
G04 Gerber Fmt 4.5, Leading zero omitted, Abs format (unit mm)*
G04 Created by KiCad (PCBNEW (6.0.2)) date 2022-08-23 14:49:38*
%MOMM*%
%LPD*%
G01*
G04 APERTURE LIST*
%TA.AperFunction,Profile*%
%ADD10C,0.100000*%
%TD*%
%ADD11C,0.200000*%
%ADD12C,0.040000*%
%ADD13C,0.070000*%
%ADD14C,0.076200*%
%ADD15C,0.100000*%
G04 APERTURE END LIST*
D10*
X25677834Y-16013920D02*
X25677834Y-12203916D01*
X25677834Y-12203916D02*
G75*
G03*
X25360334Y-11886416I-317500J0D01*
G01*
X19645329Y-11886416D02*
X25360334Y-11886416D01*
X19327829Y-16013920D02*
G75*
G03*
X19645329Y-16331420I317500J0D01*
G01*
X25360334Y-16331420D02*
X19645329Y-16331420D01*
X19645329Y-11886416D02*
G75*
G03*
X19327829Y-12203916I0J-317500D01*
G01*
X25360334Y-16331420D02*
G75*
G03*
X25677834Y-16013920I0J317500D01*
G01*
X19327829Y-16013920D02*
X19327829Y-12203916D01*
D11*
D12*
X20042048Y-13493605D02*
X20082048Y-13533605D01*
X20082048Y-13493605D02*
X20042048Y-13533605D01*
X20042048Y-15696263D02*
X20082048Y-15736263D01*
X20082048Y-15696263D02*
X20042048Y-15736263D01*
X20317830Y-15803451D02*
X20357830Y-15843451D01*
X20357830Y-15803451D02*
X20317830Y-15843451D01*
X20458767Y-13910324D02*
X20498767Y-13950324D01*
X20498767Y-13910324D02*
X20458767Y-13950324D01*
X21173143Y-15339075D02*
X21213143Y-15379075D01*
X21213143Y-15339075D02*
X21173143Y-15379075D01*
X21232674Y-13493605D02*
X21272674Y-13533605D01*
X21272674Y-13493605D02*
X21232674Y-13533605D01*
X21232674Y-13672199D02*
X21272674Y-13712199D01*
X21272674Y-13672199D02*
X21232674Y-13712199D01*
X21232674Y-13791262D02*
X21272674Y-13831262D01*
X21272674Y-13791262D02*
X21232674Y-13831262D01*
X21649082Y-14326980D02*
X21689082Y-14366980D01*
X21689082Y-14326980D02*
X21649082Y-14366980D01*
X21708925Y-14221369D02*
X21748925Y-14261369D01*
X21748925Y-14221369D02*
X21708925Y-14261369D01*
X21947050Y-12183916D02*
X21987050Y-12223916D01*
X21987050Y-12183916D02*
X21947050Y-12223916D01*
X21947050Y-13493605D02*
X21987050Y-13533605D01*
X21987050Y-13493605D02*
X21947050Y-13533605D01*
X21947050Y-13672199D02*
X21987050Y-13712199D01*
X21987050Y-13672199D02*
X21947050Y-13712199D01*
X22125644Y-13910324D02*
X22165644Y-13950324D01*
X22165644Y-13910324D02*
X22125644Y-13950324D01*
X22482831Y-14207981D02*
X22522831Y-14247981D01*
X22522831Y-14207981D02*
X22482831Y-14247981D01*
X22899550Y-13910324D02*
X22939550Y-13950324D01*
X22939550Y-13910324D02*
X22899550Y-13950324D01*
X22899550Y-15636732D02*
X22939550Y-15676732D01*
X22939550Y-15636732D02*
X22899550Y-15676732D01*
X23018613Y-12183916D02*
X23058613Y-12223916D01*
X23058613Y-12183916D02*
X23018613Y-12223916D01*
X23018613Y-13672199D02*
X23058613Y-13712199D01*
X23058613Y-13672199D02*
X23018613Y-13712199D01*
X23018613Y-13791262D02*
X23058613Y-13831262D01*
X23058613Y-13791262D02*
X23018613Y-13831262D01*
X23732989Y-13493605D02*
X23772989Y-13533605D01*
X23772989Y-13493605D02*
X23732989Y-13533605D01*
X23732989Y-13672199D02*
X23772989Y-13712199D01*
X23772989Y-13672199D02*
X23732989Y-13712199D01*
X23732989Y-15398607D02*
X23772989Y-15438607D01*
X23772989Y-15398607D02*
X23732989Y-15438607D01*
X23911583Y-13910324D02*
X23951583Y-13950324D01*
X23951583Y-13910324D02*
X23911583Y-13950324D01*
X24851165Y-13696000D02*
X24891165Y-13736000D01*
X24891165Y-13696000D02*
X24851165Y-13736000D01*
X24864083Y-15577201D02*
X24904083Y-15617201D01*
X24904083Y-15577201D02*
X24864083Y-15617201D01*
X24923615Y-13602668D02*
X24963615Y-13642668D01*
X24963615Y-13602668D02*
X24923615Y-13642668D01*
D13*
X22156831Y-14108918D02*
G75*
G03*
X22156831Y-14108918I-35000J0D01*
G01*
X22918831Y-14108918D02*
G75*
G03*
X22918831Y-14108918I-35000J0D01*
G01*
D14*
X19518329Y-13963436D02*
X19518329Y-14039636D01*
X19480229Y-14001536D02*
X19556429Y-14001536D01*
X19772329Y-13963436D02*
X19772329Y-14039636D01*
X19734229Y-14001536D02*
X19810429Y-14001536D01*
X21740831Y-12007316D02*
X21740831Y-12083516D01*
X21702731Y-12045416D02*
X21778931Y-12045416D01*
X21740831Y-12261316D02*
X21740831Y-12337516D01*
X21702731Y-12299416D02*
X21778931Y-12299416D01*
X21740831Y-13277316D02*
X21740831Y-13353516D01*
X21702731Y-13315416D02*
X21778931Y-13315416D01*
X21740831Y-13531316D02*
X21740831Y-13607516D01*
X21702731Y-13569416D02*
X21778931Y-13569416D01*
X21740831Y-13785316D02*
X21740831Y-13861516D01*
X21702731Y-13823416D02*
X21778931Y-13823416D01*
X21740831Y-14039316D02*
X21740831Y-14115516D01*
X21702731Y-14077416D02*
X21778931Y-14077416D01*
X23264831Y-12007316D02*
X23264831Y-12083516D01*
X23226731Y-12045416D02*
X23302931Y-12045416D01*
X23264831Y-12261316D02*
X23264831Y-12337516D01*
X23226731Y-12299416D02*
X23302931Y-12299416D01*
X23264831Y-13277316D02*
X23264831Y-13353516D01*
X23226731Y-13315416D02*
X23302931Y-13315416D01*
X23264831Y-13531316D02*
X23264831Y-13607516D01*
X23226731Y-13569416D02*
X23302931Y-13569416D01*
X23264831Y-13785316D02*
X23264831Y-13861516D01*
X23226731Y-13823416D02*
X23302931Y-13823416D01*
X23264831Y-14039316D02*
X23264831Y-14115516D01*
X23226731Y-14077416D02*
X23302931Y-14077416D01*
X25233334Y-13963436D02*
X25233334Y-14039636D01*
X25195234Y-14001536D02*
X25271434Y-14001536D01*
X25487334Y-13963436D02*
X25487334Y-14039636D01*
X25449234Y-14001536D02*
X25525434Y-14001536D01*
D15*
X20081529Y-14144274D02*
X20081529Y-14073562D01*
X20010818Y-14073562D01*
X20010818Y-14144274D01*
X20081529Y-14144274D01*
X20589529Y-14144274D02*
X20589529Y-14073562D01*
X20518818Y-14073562D01*
X20518818Y-14144274D01*
X20589529Y-14144274D01*
X20899092Y-14144274D02*
X20899092Y-14073562D01*
X20828381Y-14073562D01*
X20828381Y-14144274D01*
X20899092Y-14144274D01*
X21407092Y-14144274D02*
X21407092Y-14073562D01*
X21336381Y-14073562D01*
X21336381Y-14144274D01*
X21407092Y-14144274D01*
X21585686Y-15362681D02*
X21585686Y-15291970D01*
X21514975Y-15291970D01*
X21514975Y-15362681D01*
X21585686Y-15362681D01*
X21585686Y-15870681D02*
X21585686Y-15799970D01*
X21514975Y-15799970D01*
X21514975Y-15870681D01*
X21585686Y-15870681D01*
X23490688Y-15362681D02*
X23490688Y-15291970D01*
X23419976Y-15291970D01*
X23419976Y-15362681D01*
X23490688Y-15362681D01*
X23490688Y-15870681D02*
X23490688Y-15799970D01*
X23419976Y-15799970D01*
X23419976Y-15870681D01*
X23490688Y-15870681D01*
X23669282Y-14144274D02*
X23669282Y-14073562D01*
X23598570Y-14073562D01*
X23598570Y-14144274D01*
X23669282Y-14144274D01*
X24177282Y-14144274D02*
X24177282Y-14073562D01*
X24106570Y-14073562D01*
X24106570Y-14144274D01*
X24177282Y-14144274D01*
X24486845Y-14144274D02*
X24486845Y-14073562D01*
X24416134Y-14073562D01*
X24416134Y-14144274D01*
X24486845Y-14144274D01*
X24994845Y-14144274D02*
X24994845Y-14073562D01*
X24924134Y-14073562D01*
X24924134Y-14144274D01*
X24994845Y-14144274D01*
D11*
X19580448Y-16646896D02*
X19580448Y-16446896D01*
X19628067Y-16446896D01*
X19656639Y-16456420D01*
X19675686Y-16475467D01*
X19685210Y-16494515D01*
X19694734Y-16532610D01*
X19694734Y-16561182D01*
X19685210Y-16599277D01*
X19675686Y-16618324D01*
X19656639Y-16637372D01*
X19628067Y-16646896D01*
X19580448Y-16646896D01*
X19780448Y-16646896D02*
X19780448Y-16513562D01*
X19780448Y-16551658D02*
X19789972Y-16532610D01*
X19799496Y-16523086D01*
X19818543Y-16513562D01*
X19837591Y-16513562D01*
X19904258Y-16646896D02*
X19904258Y-16513562D01*
X19904258Y-16446896D02*
X19894734Y-16456420D01*
X19904258Y-16465943D01*
X19913781Y-16456420D01*
X19904258Y-16446896D01*
X19904258Y-16465943D01*
X20028067Y-16646896D02*
X20009019Y-16637372D01*
X19999496Y-16618324D01*
X19999496Y-16446896D01*
X20132829Y-16646896D02*
X20113781Y-16637372D01*
X20104258Y-16618324D01*
X20104258Y-16446896D01*
X20361400Y-16646896D02*
X20361400Y-16446896D01*
X20428067Y-16589753D01*
X20494734Y-16446896D01*
X20494734Y-16646896D01*
X20675686Y-16646896D02*
X20675686Y-16542134D01*
X20666162Y-16523086D01*
X20647115Y-16513562D01*
X20609019Y-16513562D01*
X20589972Y-16523086D01*
X20675686Y-16637372D02*
X20656639Y-16646896D01*
X20609019Y-16646896D01*
X20589972Y-16637372D01*
X20580448Y-16618324D01*
X20580448Y-16599277D01*
X20589972Y-16580229D01*
X20609019Y-16570705D01*
X20656639Y-16570705D01*
X20675686Y-16561182D01*
X20770924Y-16513562D02*
X20770924Y-16713562D01*
X20770924Y-16523086D02*
X20789972Y-16513562D01*
X20828067Y-16513562D01*
X20847115Y-16523086D01*
X20856639Y-16532610D01*
X20866162Y-16551658D01*
X20866162Y-16608801D01*
X20856639Y-16627848D01*
X20847115Y-16637372D01*
X20828067Y-16646896D01*
X20789972Y-16646896D01*
X20770924Y-16637372D01*
X20951877Y-16627848D02*
X20961400Y-16637372D01*
X20951877Y-16646896D01*
X20942353Y-16637372D01*
X20951877Y-16627848D01*
X20951877Y-16646896D01*
X20951877Y-16523086D02*
X20961400Y-16532610D01*
X20951877Y-16542134D01*
X20942353Y-16532610D01*
X20951877Y-16523086D01*
X20951877Y-16542134D01*
D12*
X19282829Y-16956420D02*
X19322829Y-16996420D01*
X19322829Y-16956420D02*
X19282829Y-16996420D01*
D11*
X19618543Y-16866896D02*
X19637591Y-16866896D01*
X19656639Y-16876420D01*
X19666162Y-16885944D01*
X19675686Y-16904991D01*
X19685210Y-16943086D01*
X19685210Y-16990705D01*
X19675686Y-17028801D01*
X19666162Y-17047848D01*
X19656639Y-17057372D01*
X19637591Y-17066896D01*
X19618543Y-17066896D01*
X19599496Y-17057372D01*
X19589972Y-17047848D01*
X19580448Y-17028801D01*
X19570924Y-16990705D01*
X19570924Y-16943086D01*
X19580448Y-16904991D01*
X19589972Y-16885944D01*
X19599496Y-16876420D01*
X19618543Y-16866896D01*
X19770924Y-17047848D02*
X19780448Y-17057372D01*
X19770924Y-17066896D01*
X19761400Y-17057372D01*
X19770924Y-17047848D01*
X19770924Y-17066896D01*
X19951877Y-16933563D02*
X19951877Y-17066896D01*
X19904258Y-16857372D02*
X19856639Y-17000229D01*
X19980448Y-17000229D01*
X20094734Y-16866896D02*
X20113781Y-16866896D01*
X20132829Y-16876420D01*
X20142353Y-16885944D01*
X20151877Y-16904991D01*
X20161400Y-16943086D01*
X20161400Y-16990705D01*
X20151877Y-17028801D01*
X20142353Y-17047848D01*
X20132829Y-17057372D01*
X20113781Y-17066896D01*
X20094734Y-17066896D01*
X20075686Y-17057372D01*
X20066162Y-17047848D01*
X20056639Y-17028801D01*
X20047115Y-16990705D01*
X20047115Y-16943086D01*
X20056639Y-16904991D01*
X20066162Y-16885944D01*
X20075686Y-16876420D01*
X20094734Y-16866896D01*
X20285210Y-16866896D02*
X20304258Y-16866896D01*
X20323305Y-16876420D01*
X20332829Y-16885944D01*
X20342353Y-16904991D01*
X20351877Y-16943086D01*
X20351877Y-16990705D01*
X20342353Y-17028801D01*
X20332829Y-17047848D01*
X20323305Y-17057372D01*
X20304258Y-17066896D01*
X20285210Y-17066896D01*
X20266162Y-17057372D01*
X20256639Y-17047848D01*
X20247115Y-17028801D01*
X20237591Y-16990705D01*
X20237591Y-16943086D01*
X20247115Y-16904991D01*
X20256639Y-16885944D01*
X20266162Y-16876420D01*
X20285210Y-16866896D01*
X20437591Y-17066896D02*
X20437591Y-16933563D01*
X20437591Y-16952610D02*
X20447115Y-16943086D01*
X20466162Y-16933563D01*
X20494734Y-16933563D01*
X20513781Y-16943086D01*
X20523305Y-16962134D01*
X20523305Y-17066896D01*
X20523305Y-16962134D02*
X20532829Y-16943086D01*
X20551877Y-16933563D01*
X20580448Y-16933563D01*
X20599496Y-16943086D01*
X20609019Y-16962134D01*
X20609019Y-17066896D01*
X20704258Y-17066896D02*
X20704258Y-16933563D01*
X20704258Y-16952610D02*
X20713781Y-16943086D01*
X20732829Y-16933563D01*
X20761400Y-16933563D01*
X20780448Y-16943086D01*
X20789972Y-16962134D01*
X20789972Y-17066896D01*
X20789972Y-16962134D02*
X20799496Y-16943086D01*
X20818543Y-16933563D01*
X20847115Y-16933563D01*
X20866162Y-16943086D01*
X20875686Y-16962134D01*
X20875686Y-17066896D01*
X21266162Y-16857372D02*
X21094734Y-17114515D01*
X21523305Y-16866896D02*
X21542353Y-16866896D01*
X21561400Y-16876420D01*
X21570924Y-16885944D01*
X21580448Y-16904991D01*
X21589972Y-16943086D01*
X21589972Y-16990705D01*
X21580448Y-17028801D01*
X21570924Y-17047848D01*
X21561400Y-17057372D01*
X21542353Y-17066896D01*
X21523305Y-17066896D01*
X21504258Y-17057372D01*
X21494734Y-17047848D01*
X21485210Y-17028801D01*
X21475686Y-16990705D01*
X21475686Y-16943086D01*
X21485210Y-16904991D01*
X21494734Y-16885944D01*
X21504258Y-16876420D01*
X21523305Y-16866896D01*
X21675686Y-17047848D02*
X21685210Y-17057372D01*
X21675686Y-17066896D01*
X21666162Y-17057372D01*
X21675686Y-17047848D01*
X21675686Y-17066896D01*
X21809019Y-16866896D02*
X21828067Y-16866896D01*
X21847115Y-16876420D01*
X21856639Y-16885944D01*
X21866162Y-16904991D01*
X21875686Y-16943086D01*
X21875686Y-16990705D01*
X21866162Y-17028801D01*
X21856639Y-17047848D01*
X21847115Y-17057372D01*
X21828067Y-17066896D01*
X21809019Y-17066896D01*
X21789972Y-17057372D01*
X21780448Y-17047848D01*
X21770924Y-17028801D01*
X21761400Y-16990705D01*
X21761400Y-16943086D01*
X21770924Y-16904991D01*
X21780448Y-16885944D01*
X21789972Y-16876420D01*
X21809019Y-16866896D01*
X22066162Y-17066896D02*
X21951877Y-17066896D01*
X22009019Y-17066896D02*
X22009019Y-16866896D01*
X21989972Y-16895467D01*
X21970924Y-16914515D01*
X21951877Y-16924039D01*
X22247115Y-16866896D02*
X22151877Y-16866896D01*
X22142353Y-16962134D01*
X22151877Y-16952610D01*
X22170924Y-16943086D01*
X22218543Y-16943086D01*
X22237591Y-16952610D01*
X22247115Y-16962134D01*
X22256639Y-16981182D01*
X22256639Y-17028801D01*
X22247115Y-17047848D01*
X22237591Y-17057372D01*
X22218543Y-17066896D01*
X22170924Y-17066896D01*
X22151877Y-17057372D01*
X22142353Y-17047848D01*
X22323305Y-16866896D02*
X22456638Y-16866896D01*
X22370924Y-17066896D01*
X22523305Y-16866896D02*
X22523305Y-16904991D01*
X22599496Y-16866896D02*
X22599496Y-16904991D01*
X22894734Y-17143086D02*
X22885210Y-17133563D01*
X22866162Y-17104991D01*
X22856638Y-17085944D01*
X22847115Y-17057372D01*
X22837591Y-17009753D01*
X22837591Y-16971658D01*
X22847115Y-16924039D01*
X22856638Y-16895467D01*
X22866162Y-16876420D01*
X22885210Y-16847848D01*
X22894734Y-16838324D01*
X22961400Y-16885944D02*
X22970924Y-16876420D01*
X22989972Y-16866896D01*
X23037591Y-16866896D01*
X23056638Y-16876420D01*
X23066162Y-16885944D01*
X23075686Y-16904991D01*
X23075686Y-16924039D01*
X23066162Y-16952610D01*
X22951877Y-17066896D01*
X23075686Y-17066896D01*
X23142353Y-16866896D02*
X23275686Y-16866896D01*
X23189972Y-17066896D01*
X23504257Y-17066896D02*
X23504257Y-16866896D01*
X23589972Y-17066896D02*
X23589972Y-16962134D01*
X23580448Y-16943086D01*
X23561400Y-16933563D01*
X23532829Y-16933563D01*
X23513781Y-16943086D01*
X23504257Y-16952610D01*
X23713781Y-17066896D02*
X23694734Y-17057372D01*
X23685210Y-17047848D01*
X23675686Y-17028801D01*
X23675686Y-16971658D01*
X23685210Y-16952610D01*
X23694734Y-16943086D01*
X23713781Y-16933563D01*
X23742353Y-16933563D01*
X23761400Y-16943086D01*
X23770924Y-16952610D01*
X23780448Y-16971658D01*
X23780448Y-17028801D01*
X23770924Y-17047848D01*
X23761400Y-17057372D01*
X23742353Y-17066896D01*
X23713781Y-17066896D01*
X23894734Y-17066896D02*
X23875686Y-17057372D01*
X23866162Y-17038324D01*
X23866162Y-16866896D01*
X24047115Y-17057372D02*
X24028067Y-17066896D01*
X23989972Y-17066896D01*
X23970924Y-17057372D01*
X23961400Y-17038324D01*
X23961400Y-16962134D01*
X23970924Y-16943086D01*
X23989972Y-16933563D01*
X24028067Y-16933563D01*
X24047115Y-16943086D01*
X24056638Y-16962134D01*
X24056638Y-16981182D01*
X23961400Y-17000229D01*
X24132829Y-17057372D02*
X24151877Y-17066896D01*
X24189972Y-17066896D01*
X24209019Y-17057372D01*
X24218543Y-17038324D01*
X24218543Y-17028801D01*
X24209019Y-17009753D01*
X24189972Y-17000229D01*
X24161400Y-17000229D01*
X24142353Y-16990705D01*
X24132829Y-16971658D01*
X24132829Y-16962134D01*
X24142353Y-16943086D01*
X24161400Y-16933563D01*
X24189972Y-16933563D01*
X24209019Y-16943086D01*
X24285210Y-17143086D02*
X24294734Y-17133563D01*
X24313781Y-17104991D01*
X24323305Y-17085944D01*
X24332829Y-17057372D01*
X24342353Y-17009753D01*
X24342353Y-16971658D01*
X24332829Y-16924039D01*
X24323305Y-16895467D01*
X24313781Y-16876420D01*
X24294734Y-16847848D01*
X24285210Y-16838324D01*
D13*
X19322829Y-17240420D02*
G75*
G03*
X19322829Y-17240420I-35000J0D01*
G01*
D11*
X19618543Y-17130896D02*
X19637591Y-17130896D01*
X19656639Y-17140420D01*
X19666162Y-17149944D01*
X19675686Y-17168991D01*
X19685210Y-17207086D01*
X19685210Y-17254705D01*
X19675686Y-17292801D01*
X19666162Y-17311848D01*
X19656639Y-17321372D01*
X19637591Y-17330896D01*
X19618543Y-17330896D01*
X19599496Y-17321372D01*
X19589972Y-17311848D01*
X19580448Y-17292801D01*
X19570924Y-17254705D01*
X19570924Y-17207086D01*
X19580448Y-17168991D01*
X19589972Y-17149944D01*
X19599496Y-17140420D01*
X19618543Y-17130896D01*
X19770924Y-17311848D02*
X19780448Y-17321372D01*
X19770924Y-17330896D01*
X19761400Y-17321372D01*
X19770924Y-17311848D01*
X19770924Y-17330896D01*
X19847115Y-17130896D02*
X19980448Y-17130896D01*
X19894734Y-17330896D01*
X20094734Y-17130896D02*
X20113781Y-17130896D01*
X20132829Y-17140420D01*
X20142353Y-17149944D01*
X20151877Y-17168991D01*
X20161400Y-17207086D01*
X20161400Y-17254705D01*
X20151877Y-17292801D01*
X20142353Y-17311848D01*
X20132829Y-17321372D01*
X20113781Y-17330896D01*
X20094734Y-17330896D01*
X20075686Y-17321372D01*
X20066162Y-17311848D01*
X20056639Y-17292801D01*
X20047115Y-17254705D01*
X20047115Y-17207086D01*
X20056639Y-17168991D01*
X20066162Y-17149944D01*
X20075686Y-17140420D01*
X20094734Y-17130896D01*
X20285210Y-17130896D02*
X20304258Y-17130896D01*
X20323305Y-17140420D01*
X20332829Y-17149944D01*
X20342353Y-17168991D01*
X20351877Y-17207086D01*
X20351877Y-17254705D01*
X20342353Y-17292801D01*
X20332829Y-17311848D01*
X20323305Y-17321372D01*
X20304258Y-17330896D01*
X20285210Y-17330896D01*
X20266162Y-17321372D01*
X20256639Y-17311848D01*
X20247115Y-17292801D01*
X20237591Y-17254705D01*
X20237591Y-17207086D01*
X20247115Y-17168991D01*
X20256639Y-17149944D01*
X20266162Y-17140420D01*
X20285210Y-17130896D01*
X20437591Y-17330896D02*
X20437591Y-17197563D01*
X20437591Y-17216610D02*
X20447115Y-17207086D01*
X20466162Y-17197563D01*
X20494734Y-17197563D01*
X20513781Y-17207086D01*
X20523305Y-17226134D01*
X20523305Y-17330896D01*
X20523305Y-17226134D02*
X20532829Y-17207086D01*
X20551877Y-17197563D01*
X20580448Y-17197563D01*
X20599496Y-17207086D01*
X20609019Y-17226134D01*
X20609019Y-17330896D01*
X20704258Y-17330896D02*
X20704258Y-17197563D01*
X20704258Y-17216610D02*
X20713781Y-17207086D01*
X20732829Y-17197563D01*
X20761400Y-17197563D01*
X20780448Y-17207086D01*
X20789972Y-17226134D01*
X20789972Y-17330896D01*
X20789972Y-17226134D02*
X20799496Y-17207086D01*
X20818543Y-17197563D01*
X20847115Y-17197563D01*
X20866162Y-17207086D01*
X20875686Y-17226134D01*
X20875686Y-17330896D01*
X21266162Y-17121372D02*
X21094734Y-17378515D01*
X21523305Y-17130896D02*
X21542353Y-17130896D01*
X21561400Y-17140420D01*
X21570924Y-17149944D01*
X21580448Y-17168991D01*
X21589972Y-17207086D01*
X21589972Y-17254705D01*
X21580448Y-17292801D01*
X21570924Y-17311848D01*
X21561400Y-17321372D01*
X21542353Y-17330896D01*
X21523305Y-17330896D01*
X21504258Y-17321372D01*
X21494734Y-17311848D01*
X21485210Y-17292801D01*
X21475686Y-17254705D01*
X21475686Y-17207086D01*
X21485210Y-17168991D01*
X21494734Y-17149944D01*
X21504258Y-17140420D01*
X21523305Y-17130896D01*
X21675686Y-17311848D02*
X21685210Y-17321372D01*
X21675686Y-17330896D01*
X21666162Y-17321372D01*
X21675686Y-17311848D01*
X21675686Y-17330896D01*
X21809019Y-17130896D02*
X21828067Y-17130896D01*
X21847115Y-17140420D01*
X21856639Y-17149944D01*
X21866162Y-17168991D01*
X21875686Y-17207086D01*
X21875686Y-17254705D01*
X21866162Y-17292801D01*
X21856639Y-17311848D01*
X21847115Y-17321372D01*
X21828067Y-17330896D01*
X21809019Y-17330896D01*
X21789972Y-17321372D01*
X21780448Y-17311848D01*
X21770924Y-17292801D01*
X21761400Y-17254705D01*
X21761400Y-17207086D01*
X21770924Y-17168991D01*
X21780448Y-17149944D01*
X21789972Y-17140420D01*
X21809019Y-17130896D01*
X21951877Y-17149944D02*
X21961400Y-17140420D01*
X21980448Y-17130896D01*
X22028067Y-17130896D01*
X22047115Y-17140420D01*
X22056639Y-17149944D01*
X22066162Y-17168991D01*
X22066162Y-17188039D01*
X22056639Y-17216610D01*
X21942353Y-17330896D01*
X22066162Y-17330896D01*
X22132829Y-17130896D02*
X22266162Y-17130896D01*
X22180448Y-17330896D01*
X22428067Y-17130896D02*
X22389972Y-17130896D01*
X22370924Y-17140420D01*
X22361400Y-17149944D01*
X22342353Y-17178515D01*
X22332829Y-17216610D01*
X22332829Y-17292801D01*
X22342353Y-17311848D01*
X22351877Y-17321372D01*
X22370924Y-17330896D01*
X22409019Y-17330896D01*
X22428067Y-17321372D01*
X22437591Y-17311848D01*
X22447115Y-17292801D01*
X22447115Y-17245182D01*
X22437591Y-17226134D01*
X22428067Y-17216610D01*
X22409019Y-17207086D01*
X22370924Y-17207086D01*
X22351877Y-17216610D01*
X22342353Y-17226134D01*
X22332829Y-17245182D01*
X22523305Y-17130896D02*
X22523305Y-17168991D01*
X22599496Y-17130896D02*
X22599496Y-17168991D01*
X22894734Y-17407086D02*
X22885210Y-17397563D01*
X22866162Y-17368991D01*
X22856638Y-17349944D01*
X22847115Y-17321372D01*
X22837591Y-17273753D01*
X22837591Y-17235658D01*
X22847115Y-17188039D01*
X22856638Y-17159467D01*
X22866162Y-17140420D01*
X22885210Y-17111848D01*
X22894734Y-17102324D01*
X22961400Y-17149944D02*
X22970924Y-17140420D01*
X22989972Y-17130896D01*
X23037591Y-17130896D01*
X23056638Y-17140420D01*
X23066162Y-17149944D01*
X23075686Y-17168991D01*
X23075686Y-17188039D01*
X23066162Y-17216610D01*
X22951877Y-17330896D01*
X23075686Y-17330896D01*
X23313781Y-17330896D02*
X23313781Y-17130896D01*
X23399496Y-17330896D02*
X23399496Y-17226134D01*
X23389972Y-17207086D01*
X23370924Y-17197563D01*
X23342353Y-17197563D01*
X23323305Y-17207086D01*
X23313781Y-17216610D01*
X23523305Y-17330896D02*
X23504257Y-17321372D01*
X23494734Y-17311848D01*
X23485210Y-17292801D01*
X23485210Y-17235658D01*
X23494734Y-17216610D01*
X23504257Y-17207086D01*
X23523305Y-17197563D01*
X23551877Y-17197563D01*
X23570924Y-17207086D01*
X23580448Y-17216610D01*
X23589972Y-17235658D01*
X23589972Y-17292801D01*
X23580448Y-17311848D01*
X23570924Y-17321372D01*
X23551877Y-17330896D01*
X23523305Y-17330896D01*
X23704257Y-17330896D02*
X23685210Y-17321372D01*
X23675686Y-17302324D01*
X23675686Y-17130896D01*
X23856638Y-17321372D02*
X23837591Y-17330896D01*
X23799496Y-17330896D01*
X23780448Y-17321372D01*
X23770924Y-17302324D01*
X23770924Y-17226134D01*
X23780448Y-17207086D01*
X23799496Y-17197563D01*
X23837591Y-17197563D01*
X23856638Y-17207086D01*
X23866162Y-17226134D01*
X23866162Y-17245182D01*
X23770924Y-17264229D01*
X23942353Y-17321372D02*
X23961400Y-17330896D01*
X23999496Y-17330896D01*
X24018543Y-17321372D01*
X24028067Y-17302324D01*
X24028067Y-17292801D01*
X24018543Y-17273753D01*
X23999496Y-17264229D01*
X23970924Y-17264229D01*
X23951877Y-17254705D01*
X23942353Y-17235658D01*
X23942353Y-17226134D01*
X23951877Y-17207086D01*
X23970924Y-17197563D01*
X23999496Y-17197563D01*
X24018543Y-17207086D01*
X24094734Y-17407086D02*
X24104257Y-17397563D01*
X24123305Y-17368991D01*
X24132829Y-17349944D01*
X24142353Y-17321372D01*
X24151877Y-17273753D01*
X24151877Y-17235658D01*
X24142353Y-17188039D01*
X24132829Y-17159467D01*
X24123305Y-17140420D01*
X24104257Y-17111848D01*
X24094734Y-17102324D01*
D14*
X19284729Y-17466320D02*
X19284729Y-17542520D01*
X19246629Y-17504420D02*
X19322829Y-17504420D01*
D11*
X19618543Y-17394896D02*
X19637591Y-17394896D01*
X19656639Y-17404420D01*
X19666162Y-17413944D01*
X19675686Y-17432991D01*
X19685210Y-17471086D01*
X19685210Y-17518705D01*
X19675686Y-17556801D01*
X19666162Y-17575848D01*
X19656639Y-17585372D01*
X19637591Y-17594896D01*
X19618543Y-17594896D01*
X19599496Y-17585372D01*
X19589972Y-17575848D01*
X19580448Y-17556801D01*
X19570924Y-17518705D01*
X19570924Y-17471086D01*
X19580448Y-17432991D01*
X19589972Y-17413944D01*
X19599496Y-17404420D01*
X19618543Y-17394896D01*
X19770924Y-17575848D02*
X19780448Y-17585372D01*
X19770924Y-17594896D01*
X19761400Y-17585372D01*
X19770924Y-17575848D01*
X19770924Y-17594896D01*
X19847115Y-17394896D02*
X19980448Y-17394896D01*
X19894734Y-17594896D01*
X20142353Y-17394896D02*
X20104258Y-17394896D01*
X20085210Y-17404420D01*
X20075686Y-17413944D01*
X20056639Y-17442515D01*
X20047115Y-17480610D01*
X20047115Y-17556801D01*
X20056639Y-17575848D01*
X20066162Y-17585372D01*
X20085210Y-17594896D01*
X20123305Y-17594896D01*
X20142353Y-17585372D01*
X20151877Y-17575848D01*
X20161400Y-17556801D01*
X20161400Y-17509182D01*
X20151877Y-17490134D01*
X20142353Y-17480610D01*
X20123305Y-17471086D01*
X20085210Y-17471086D01*
X20066162Y-17480610D01*
X20056639Y-17490134D01*
X20047115Y-17509182D01*
X20237591Y-17413944D02*
X20247115Y-17404420D01*
X20266162Y-17394896D01*
X20313781Y-17394896D01*
X20332829Y-17404420D01*
X20342353Y-17413944D01*
X20351877Y-17432991D01*
X20351877Y-17452039D01*
X20342353Y-17480610D01*
X20228067Y-17594896D01*
X20351877Y-17594896D01*
X20437591Y-17594896D02*
X20437591Y-17461563D01*
X20437591Y-17480610D02*
X20447115Y-17471086D01*
X20466162Y-17461563D01*
X20494734Y-17461563D01*
X20513781Y-17471086D01*
X20523305Y-17490134D01*
X20523305Y-17594896D01*
X20523305Y-17490134D02*
X20532829Y-17471086D01*
X20551877Y-17461563D01*
X20580448Y-17461563D01*
X20599496Y-17471086D01*
X20609019Y-17490134D01*
X20609019Y-17594896D01*
X20704258Y-17594896D02*
X20704258Y-17461563D01*
X20704258Y-17480610D02*
X20713781Y-17471086D01*
X20732829Y-17461563D01*
X20761400Y-17461563D01*
X20780448Y-17471086D01*
X20789972Y-17490134D01*
X20789972Y-17594896D01*
X20789972Y-17490134D02*
X20799496Y-17471086D01*
X20818543Y-17461563D01*
X20847115Y-17461563D01*
X20866162Y-17471086D01*
X20875686Y-17490134D01*
X20875686Y-17594896D01*
X21266162Y-17385372D02*
X21094734Y-17642515D01*
X21523305Y-17394896D02*
X21542353Y-17394896D01*
X21561400Y-17404420D01*
X21570924Y-17413944D01*
X21580448Y-17432991D01*
X21589972Y-17471086D01*
X21589972Y-17518705D01*
X21580448Y-17556801D01*
X21570924Y-17575848D01*
X21561400Y-17585372D01*
X21542353Y-17594896D01*
X21523305Y-17594896D01*
X21504258Y-17585372D01*
X21494734Y-17575848D01*
X21485210Y-17556801D01*
X21475686Y-17518705D01*
X21475686Y-17471086D01*
X21485210Y-17432991D01*
X21494734Y-17413944D01*
X21504258Y-17404420D01*
X21523305Y-17394896D01*
X21675686Y-17575848D02*
X21685210Y-17585372D01*
X21675686Y-17594896D01*
X21666162Y-17585372D01*
X21675686Y-17575848D01*
X21675686Y-17594896D01*
X21809019Y-17394896D02*
X21828067Y-17394896D01*
X21847115Y-17404420D01*
X21856639Y-17413944D01*
X21866162Y-17432991D01*
X21875686Y-17471086D01*
X21875686Y-17518705D01*
X21866162Y-17556801D01*
X21856639Y-17575848D01*
X21847115Y-17585372D01*
X21828067Y-17594896D01*
X21809019Y-17594896D01*
X21789972Y-17585372D01*
X21780448Y-17575848D01*
X21770924Y-17556801D01*
X21761400Y-17518705D01*
X21761400Y-17471086D01*
X21770924Y-17432991D01*
X21780448Y-17413944D01*
X21789972Y-17404420D01*
X21809019Y-17394896D01*
X21942353Y-17394896D02*
X22066162Y-17394896D01*
X21999496Y-17471086D01*
X22028067Y-17471086D01*
X22047115Y-17480610D01*
X22056639Y-17490134D01*
X22066162Y-17509182D01*
X22066162Y-17556801D01*
X22056639Y-17575848D01*
X22047115Y-17585372D01*
X22028067Y-17594896D01*
X21970924Y-17594896D01*
X21951877Y-17585372D01*
X21942353Y-17575848D01*
X22189972Y-17394896D02*
X22209019Y-17394896D01*
X22228067Y-17404420D01*
X22237591Y-17413944D01*
X22247115Y-17432991D01*
X22256639Y-17471086D01*
X22256639Y-17518705D01*
X22247115Y-17556801D01*
X22237591Y-17575848D01*
X22228067Y-17585372D01*
X22209019Y-17594896D01*
X22189972Y-17594896D01*
X22170924Y-17585372D01*
X22161400Y-17575848D01*
X22151877Y-17556801D01*
X22142353Y-17518705D01*
X22142353Y-17471086D01*
X22151877Y-17432991D01*
X22161400Y-17413944D01*
X22170924Y-17404420D01*
X22189972Y-17394896D01*
X22380448Y-17394896D02*
X22399496Y-17394896D01*
X22418543Y-17404420D01*
X22428067Y-17413944D01*
X22437591Y-17432991D01*
X22447115Y-17471086D01*
X22447115Y-17518705D01*
X22437591Y-17556801D01*
X22428067Y-17575848D01*
X22418543Y-17585372D01*
X22399496Y-17594896D01*
X22380448Y-17594896D01*
X22361400Y-17585372D01*
X22351877Y-17575848D01*
X22342353Y-17556801D01*
X22332829Y-17518705D01*
X22332829Y-17471086D01*
X22342353Y-17432991D01*
X22351877Y-17413944D01*
X22361400Y-17404420D01*
X22380448Y-17394896D01*
X22523305Y-17394896D02*
X22523305Y-17432991D01*
X22599496Y-17394896D02*
X22599496Y-17432991D01*
X22894734Y-17671086D02*
X22885210Y-17661563D01*
X22866162Y-17632991D01*
X22856638Y-17613944D01*
X22847115Y-17585372D01*
X22837591Y-17537753D01*
X22837591Y-17499658D01*
X22847115Y-17452039D01*
X22856638Y-17423467D01*
X22866162Y-17404420D01*
X22885210Y-17375848D01*
X22894734Y-17366324D01*
X23075686Y-17594896D02*
X22961400Y-17594896D01*
X23018543Y-17594896D02*
X23018543Y-17394896D01*
X22999496Y-17423467D01*
X22980448Y-17442515D01*
X22961400Y-17452039D01*
X23247115Y-17394896D02*
X23209019Y-17394896D01*
X23189972Y-17404420D01*
X23180448Y-17413944D01*
X23161400Y-17442515D01*
X23151877Y-17480610D01*
X23151877Y-17556801D01*
X23161400Y-17575848D01*
X23170924Y-17585372D01*
X23189972Y-17594896D01*
X23228067Y-17594896D01*
X23247115Y-17585372D01*
X23256638Y-17575848D01*
X23266162Y-17556801D01*
X23266162Y-17509182D01*
X23256638Y-17490134D01*
X23247115Y-17480610D01*
X23228067Y-17471086D01*
X23189972Y-17471086D01*
X23170924Y-17480610D01*
X23161400Y-17490134D01*
X23151877Y-17509182D01*
X23504257Y-17594896D02*
X23504257Y-17394896D01*
X23589972Y-17594896D02*
X23589972Y-17490134D01*
X23580448Y-17471086D01*
X23561400Y-17461563D01*
X23532829Y-17461563D01*
X23513781Y-17471086D01*
X23504257Y-17480610D01*
X23713781Y-17594896D02*
X23694734Y-17585372D01*
X23685210Y-17575848D01*
X23675686Y-17556801D01*
X23675686Y-17499658D01*
X23685210Y-17480610D01*
X23694734Y-17471086D01*
X23713781Y-17461563D01*
X23742353Y-17461563D01*
X23761400Y-17471086D01*
X23770924Y-17480610D01*
X23780448Y-17499658D01*
X23780448Y-17556801D01*
X23770924Y-17575848D01*
X23761400Y-17585372D01*
X23742353Y-17594896D01*
X23713781Y-17594896D01*
X23894734Y-17594896D02*
X23875686Y-17585372D01*
X23866162Y-17566324D01*
X23866162Y-17394896D01*
X24047115Y-17585372D02*
X24028067Y-17594896D01*
X23989972Y-17594896D01*
X23970924Y-17585372D01*
X23961400Y-17566324D01*
X23961400Y-17490134D01*
X23970924Y-17471086D01*
X23989972Y-17461563D01*
X24028067Y-17461563D01*
X24047115Y-17471086D01*
X24056638Y-17490134D01*
X24056638Y-17509182D01*
X23961400Y-17528229D01*
X24132829Y-17585372D02*
X24151877Y-17594896D01*
X24189972Y-17594896D01*
X24209019Y-17585372D01*
X24218543Y-17566324D01*
X24218543Y-17556801D01*
X24209019Y-17537753D01*
X24189972Y-17528229D01*
X24161400Y-17528229D01*
X24142353Y-17518705D01*
X24132829Y-17499658D01*
X24132829Y-17490134D01*
X24142353Y-17471086D01*
X24161400Y-17461563D01*
X24189972Y-17461563D01*
X24209019Y-17471086D01*
X24285210Y-17671086D02*
X24294734Y-17661563D01*
X24313781Y-17632991D01*
X24323305Y-17613944D01*
X24332829Y-17585372D01*
X24342353Y-17537753D01*
X24342353Y-17499658D01*
X24332829Y-17452039D01*
X24323305Y-17423467D01*
X24313781Y-17404420D01*
X24294734Y-17375848D01*
X24285210Y-17366324D01*
D15*
X19308185Y-17803775D02*
X19308185Y-17733064D01*
X19237473Y-17733064D01*
X19237473Y-17803775D01*
X19308185Y-17803775D01*
D11*
X19685210Y-17858896D02*
X19570924Y-17858896D01*
X19628067Y-17858896D02*
X19628067Y-17658896D01*
X19609019Y-17687467D01*
X19589972Y-17706515D01*
X19570924Y-17716039D01*
X19770924Y-17839848D02*
X19780448Y-17849372D01*
X19770924Y-17858896D01*
X19761400Y-17849372D01*
X19770924Y-17839848D01*
X19770924Y-17858896D01*
X19904258Y-17658896D02*
X19923305Y-17658896D01*
X19942353Y-17668420D01*
X19951877Y-17677944D01*
X19961400Y-17696991D01*
X19970924Y-17735086D01*
X19970924Y-17782705D01*
X19961400Y-17820801D01*
X19951877Y-17839848D01*
X19942353Y-17849372D01*
X19923305Y-17858896D01*
X19904258Y-17858896D01*
X19885210Y-17849372D01*
X19875686Y-17839848D01*
X19866162Y-17820801D01*
X19856639Y-17782705D01*
X19856639Y-17735086D01*
X19866162Y-17696991D01*
X19875686Y-17677944D01*
X19885210Y-17668420D01*
X19904258Y-17658896D01*
X20094734Y-17658896D02*
X20113781Y-17658896D01*
X20132829Y-17668420D01*
X20142353Y-17677944D01*
X20151877Y-17696991D01*
X20161400Y-17735086D01*
X20161400Y-17782705D01*
X20151877Y-17820801D01*
X20142353Y-17839848D01*
X20132829Y-17849372D01*
X20113781Y-17858896D01*
X20094734Y-17858896D01*
X20075686Y-17849372D01*
X20066162Y-17839848D01*
X20056639Y-17820801D01*
X20047115Y-17782705D01*
X20047115Y-17735086D01*
X20056639Y-17696991D01*
X20066162Y-17677944D01*
X20075686Y-17668420D01*
X20094734Y-17658896D01*
X20285210Y-17658896D02*
X20304258Y-17658896D01*
X20323305Y-17668420D01*
X20332829Y-17677944D01*
X20342353Y-17696991D01*
X20351877Y-17735086D01*
X20351877Y-17782705D01*
X20342353Y-17820801D01*
X20332829Y-17839848D01*
X20323305Y-17849372D01*
X20304258Y-17858896D01*
X20285210Y-17858896D01*
X20266162Y-17849372D01*
X20256639Y-17839848D01*
X20247115Y-17820801D01*
X20237591Y-17782705D01*
X20237591Y-17735086D01*
X20247115Y-17696991D01*
X20256639Y-17677944D01*
X20266162Y-17668420D01*
X20285210Y-17658896D01*
X20437591Y-17858896D02*
X20437591Y-17725563D01*
X20437591Y-17744610D02*
X20447115Y-17735086D01*
X20466162Y-17725563D01*
X20494734Y-17725563D01*
X20513781Y-17735086D01*
X20523305Y-17754134D01*
X20523305Y-17858896D01*
X20523305Y-17754134D02*
X20532829Y-17735086D01*
X20551877Y-17725563D01*
X20580448Y-17725563D01*
X20599496Y-17735086D01*
X20609019Y-17754134D01*
X20609019Y-17858896D01*
X20704258Y-17858896D02*
X20704258Y-17725563D01*
X20704258Y-17744610D02*
X20713781Y-17735086D01*
X20732829Y-17725563D01*
X20761400Y-17725563D01*
X20780448Y-17735086D01*
X20789972Y-17754134D01*
X20789972Y-17858896D01*
X20789972Y-17754134D02*
X20799496Y-17735086D01*
X20818543Y-17725563D01*
X20847115Y-17725563D01*
X20866162Y-17735086D01*
X20875686Y-17754134D01*
X20875686Y-17858896D01*
X21266162Y-17649372D02*
X21094734Y-17906515D01*
X21523305Y-17658896D02*
X21542353Y-17658896D01*
X21561400Y-17668420D01*
X21570924Y-17677944D01*
X21580448Y-17696991D01*
X21589972Y-17735086D01*
X21589972Y-17782705D01*
X21580448Y-17820801D01*
X21570924Y-17839848D01*
X21561400Y-17849372D01*
X21542353Y-17858896D01*
X21523305Y-17858896D01*
X21504258Y-17849372D01*
X21494734Y-17839848D01*
X21485210Y-17820801D01*
X21475686Y-17782705D01*
X21475686Y-17735086D01*
X21485210Y-17696991D01*
X21494734Y-17677944D01*
X21504258Y-17668420D01*
X21523305Y-17658896D01*
X21675686Y-17839848D02*
X21685210Y-17849372D01*
X21675686Y-17858896D01*
X21666162Y-17849372D01*
X21675686Y-17839848D01*
X21675686Y-17858896D01*
X21809019Y-17658896D02*
X21828067Y-17658896D01*
X21847115Y-17668420D01*
X21856639Y-17677944D01*
X21866162Y-17696991D01*
X21875686Y-17735086D01*
X21875686Y-17782705D01*
X21866162Y-17820801D01*
X21856639Y-17839848D01*
X21847115Y-17849372D01*
X21828067Y-17858896D01*
X21809019Y-17858896D01*
X21789972Y-17849372D01*
X21780448Y-17839848D01*
X21770924Y-17820801D01*
X21761400Y-17782705D01*
X21761400Y-17735086D01*
X21770924Y-17696991D01*
X21780448Y-17677944D01*
X21789972Y-17668420D01*
X21809019Y-17658896D01*
X21942353Y-17658896D02*
X22066162Y-17658896D01*
X21999496Y-17735086D01*
X22028067Y-17735086D01*
X22047115Y-17744610D01*
X22056639Y-17754134D01*
X22066162Y-17773182D01*
X22066162Y-17820801D01*
X22056639Y-17839848D01*
X22047115Y-17849372D01*
X22028067Y-17858896D01*
X21970924Y-17858896D01*
X21951877Y-17849372D01*
X21942353Y-17839848D01*
X22161400Y-17858896D02*
X22199496Y-17858896D01*
X22218543Y-17849372D01*
X22228067Y-17839848D01*
X22247115Y-17811277D01*
X22256639Y-17773182D01*
X22256639Y-17696991D01*
X22247115Y-17677944D01*
X22237591Y-17668420D01*
X22218543Y-17658896D01*
X22180448Y-17658896D01*
X22161400Y-17668420D01*
X22151877Y-17677944D01*
X22142353Y-17696991D01*
X22142353Y-17744610D01*
X22151877Y-17763658D01*
X22161400Y-17773182D01*
X22180448Y-17782705D01*
X22218543Y-17782705D01*
X22237591Y-17773182D01*
X22247115Y-17763658D01*
X22256639Y-17744610D01*
X22428067Y-17725563D02*
X22428067Y-17858896D01*
X22380448Y-17649372D02*
X22332829Y-17792229D01*
X22456638Y-17792229D01*
X22523305Y-17658896D02*
X22523305Y-17696991D01*
X22599496Y-17658896D02*
X22599496Y-17696991D01*
X22894734Y-17935086D02*
X22885210Y-17925563D01*
X22866162Y-17896991D01*
X22856638Y-17877944D01*
X22847115Y-17849372D01*
X22837591Y-17801753D01*
X22837591Y-17763658D01*
X22847115Y-17716039D01*
X22856638Y-17687467D01*
X22866162Y-17668420D01*
X22885210Y-17639848D01*
X22894734Y-17630324D01*
X23075686Y-17858896D02*
X22961400Y-17858896D01*
X23018543Y-17858896D02*
X23018543Y-17658896D01*
X22999496Y-17687467D01*
X22980448Y-17706515D01*
X22961400Y-17716039D01*
X23151877Y-17677944D02*
X23161400Y-17668420D01*
X23180448Y-17658896D01*
X23228067Y-17658896D01*
X23247115Y-17668420D01*
X23256638Y-17677944D01*
X23266162Y-17696991D01*
X23266162Y-17716039D01*
X23256638Y-17744610D01*
X23142353Y-17858896D01*
X23266162Y-17858896D01*
X23504257Y-17858896D02*
X23504257Y-17658896D01*
X23589972Y-17858896D02*
X23589972Y-17754134D01*
X23580448Y-17735086D01*
X23561400Y-17725563D01*
X23532829Y-17725563D01*
X23513781Y-17735086D01*
X23504257Y-17744610D01*
X23713781Y-17858896D02*
X23694734Y-17849372D01*
X23685210Y-17839848D01*
X23675686Y-17820801D01*
X23675686Y-17763658D01*
X23685210Y-17744610D01*
X23694734Y-17735086D01*
X23713781Y-17725563D01*
X23742353Y-17725563D01*
X23761400Y-17735086D01*
X23770924Y-17744610D01*
X23780448Y-17763658D01*
X23780448Y-17820801D01*
X23770924Y-17839848D01*
X23761400Y-17849372D01*
X23742353Y-17858896D01*
X23713781Y-17858896D01*
X23894734Y-17858896D02*
X23875686Y-17849372D01*
X23866162Y-17830324D01*
X23866162Y-17658896D01*
X24047115Y-17849372D02*
X24028067Y-17858896D01*
X23989972Y-17858896D01*
X23970924Y-17849372D01*
X23961400Y-17830324D01*
X23961400Y-17754134D01*
X23970924Y-17735086D01*
X23989972Y-17725563D01*
X24028067Y-17725563D01*
X24047115Y-17735086D01*
X24056638Y-17754134D01*
X24056638Y-17773182D01*
X23961400Y-17792229D01*
X24132829Y-17849372D02*
X24151877Y-17858896D01*
X24189972Y-17858896D01*
X24209019Y-17849372D01*
X24218543Y-17830324D01*
X24218543Y-17820801D01*
X24209019Y-17801753D01*
X24189972Y-17792229D01*
X24161400Y-17792229D01*
X24142353Y-17782705D01*
X24132829Y-17763658D01*
X24132829Y-17754134D01*
X24142353Y-17735086D01*
X24161400Y-17725563D01*
X24189972Y-17725563D01*
X24209019Y-17735086D01*
X24285210Y-17935086D02*
X24294734Y-17925563D01*
X24313781Y-17896991D01*
X24323305Y-17877944D01*
X24332829Y-17849372D01*
X24342353Y-17801753D01*
X24342353Y-17763658D01*
X24332829Y-17716039D01*
X24323305Y-17687467D01*
X24313781Y-17668420D01*
X24294734Y-17639848D01*
X24285210Y-17630324D01*
M02*
